<svg xmlns="http://www.w3.org/2000/svg" viewBox="0 0 32 32" fill="none">
  <rect width="32" height="32" rx="6" fill="#1a1a2e"/>
  <path d="M8 16C8 12 10 8 16 8C20 8 22 10 24 12L20 8C18 6 17 5 16 5C12 5 10 8 10 16C10 22 14 26 16 27L18 26C16 25 12 22 12 16Z" fill="#e94560"/>
  <path d="M24 16C24 20 22 24 16 24C12 24 10 22 8 20L12 24C14 26 15 27 16 27C20 27 22 24 22 16C22 10 18 6 16 5L14 6C16 7 20 10 20 16Z" fill="#0f3460"/>
  <circle cx="16" cy="16" r="4" fill="#16213e"/>
  <circle cx="16" cy="16" r="2" fill="#e94560"/>
</svg>
